#!OML:ASF H:\LiuWeirdWalks\Patient Classification 1\Patient 1\Session 1\male.ASF
:FULLY-SPECIFIED
:DEGREES
1471
root 0.721644 18.2539 15.7326 5.44184 2.79231 1.49618
lowerback 0.926565 -4.64171 -0.313704
upperback -1.59566 -6.13046 4.38187
thorax -1.6452 -3.03703 4.81223
lowerneck -19.7181 2.57093 7.16591
upperneck 21.5856 3.61993 -8.90902
head 10.4784 1.18091 -3.86676
rclavicle -2.25621e-014 -3.65764e-014
rhumerus -38.778 -1.60027 -76.2387
rradius 34.1214
rwrist -8.3714
rhand -15.9543 -3.22862
rfingers 7.12502
rthumb 10.2442 -32.9592
lclavicle -2.25621e-014 -3.65764e-014
lhumerus -31.3758 -1.14455 88.7906
lradius 33.7338
lwrist 11.0745
lhand -11.9257 -2.63512
lfingers 7.12502
lthumb 14.1286 26.8645
rfemur -18.3831 -5.26715 22.9176
rtibia 29.6225
rfoot -14.065 -11.0435
rtoes -3.81879
lfemur 11.1023 -2.73815 -20.4195
ltibia 26.8043
lfoot 28.8806 1.52738
ltoes -15.261
1472
root 0.711296 18.2519 15.771 5.40158 2.95655 1.40642
lowerback 1.00261 -4.70842 -0.289937
upperback -1.55544 -6.2185 4.4073
thorax -1.63864 -3.08189 4.831
lowerneck -19.798 2.64863 7.27997
upperneck 21.5833 3.70965 -8.99043
head 10.5054 1.22024 -3.9029
rclavicle 2.29596e-014 -2.54444e-014
rhumerus -38.6935 -1.50468 -76.3179
rradius 34.145
rwrist -8.42604
rhand -15.9723 -3.3011
rfingers 7.12502
rthumb 10.2269 -33.0325
lclavicle 2.29596e-014 -2.54444e-014
lhumerus -31.3532 -0.994986 88.6851
lradius 33.7933
lwrist 11.0725
lhand -11.9085 -2.62226
lfingers 7.12502
lthumb 14.1452 26.8762
rfemur -18.1627 -5.13583 23.0595
rtibia 29.5508
rfoot -13.8613 -11.2623
rtoes -3.09163
lfemur 10.8121 -2.81022 -20.133
ltibia 27.5507
lfoot 28.7346 1.14037
ltoes -14.6578
1473
root 0.700979 18.2497 15.8094 5.35079 3.10904 1.2995
lowerback 1.07389 -4.76108 -0.250747
upperback -1.50603 -6.2877 4.43712
thorax -1.62265 -3.11769 4.84469
lowerneck -19.9054 2.71273 7.35488
upperneck 21.6165 3.78629 -9.04563
head 10.548 1.25256 -3.92576
rclavicle 1.799e-014 3.18055e-015
rhumerus -38.6129 -1.41786 -76.3853
rradius 34.181
rwrist -8.48889
rhand -15.9862 -3.37152
rfingers 7.12502
rthumb 10.2135 -33.1036
lclavicle 1.799e-014 3.18055e-015
lhumerus -31.3157 -0.856023 88.5909
lradius 33.8469
lwrist 11.022
lhand -11.8761 -2.6275
lfingers 7.12502
lthumb 14.1764 26.8688
rfemur -17.9328 -4.99855 23.2214
rtibia 29.4755
rfoot -13.6539 -11.4943
rtoes -2.36909
lfemur 10.5091 -2.86545 -19.826
ltibia 28.318
lfoot 28.6196 0.69248
ltoes -14.0715
1474
root 0.69112 18.2473 15.8469 5.29186 3.2446 1.19143
lowerback 1.15853 -4.79887 -0.207923
upperback -1.47416 -6.33602 4.46456
thorax -1.63465 -3.14245 4.8562
lowerneck -19.9604 2.75404 7.39762
upperneck 21.6679 3.83778 -9.07165
head 10.5837 1.27517 -3.93651
rclavicle -1.44119e-014 1.74931e-014
rhumerus -38.5742 -1.35738 -76.4279
rradius 34.2056
rwrist -8.50285
rhand -15.9852 -3.39328
rfingers 7.12502
rthumb 10.2144 -33.1253
lclavicle -1.44119e-014 1.74931e-014
lhumerus -31.3095 -0.743785 88.515
lradius 33.8947
lwrist 10.9493
lhand -11.8513 -2.64991
lfingers 7.12502
lthumb 14.2003 26.8447
rfemur -17.6996 -4.85611 23.3837
rtibia 29.3986
rfoot -13.4507 -11.7364
rtoes -1.65993
lfemur 10.19 -2.91125 -19.5208
ltibia 29.0925
lfoot 28.5796 0.215712
ltoes -13.3889
1475
root 0.681776 18.245 15.8841 5.22501 3.37345 1.06275
lowerback 1.23695 -4.80452 -0.120015
upperback -1.44686 -6.34008 4.49147
thorax -1.65652 -3.14529 4.84154
lowerneck -20.0024 2.75295 7.37236
upperneck 21.7246 3.84149 -9.05605
head 10.6118 1.2754 -3.92764
rclavicle 2.36554e-014 0
rhumerus -38.5671 -1.36411 -76.4195
rradius 34.2174
rwrist -8.48748
rhand -15.9599 -3.36703
rfingers 7.12502
rthumb 10.2388 -33.0978
lclavicle 2.36554e-014 0
lhumerus -31.2973 -0.703442 88.4889
lradius 33.9295
lwrist 10.895
lhand -11.8154 -2.65155
lfingers 7.12502
lthumb 14.2349 26.8406
rfemur -17.4601 -4.70878 23.5666
rtibia 29.3219
rfoot -13.274 -11.9839
rtoes -0.958054
lfemur 9.85835 -2.95047 -19.193
ltibia 29.8642
lfoot 28.6266 -0.281546
ltoes -12.6467
